<svg xmlns="http://www.w3.org/2000/svg" width="24" height="24" viewBox="0 0 24 24">
<defs>
    <style>.google{fill:#ea4335;fill-rule:evenodd;}</style>
</defs>
<g transform="translate(-118 -68.07)">
    <path class="google" d="M138.754,77.888a13.451,13.451,0,0,0-.223-2.454H127v4.642h6.59a5.515,5.515,0,0,1-2.449,3.621v3.01H135.1a11.579,11.579,0,0,0,3.652-8.818Zm0,0" transform="translate(3.244 2.453)"/>
    <path class="google" d="M129.9,88.5a11.828,11.828,0,0,0,8.1-2.907l-3.956-3.01a7.518,7.518,0,0,1-6.447.735,7.311,7.311,0,0,1-4.551-4.535h-4.091V81.89A12.274,12.274,0,0,0,129.9,88.5Zm0,0" transform="translate(0.345 3.567)"/>
    <path class="google" d="M123.393,80.7a6.964,6.964,0,0,1,0-4.559V73.029H119.3a11.8,11.8,0,0,0,0,10.776l4.091-3.109Zm0,0" transform="translate(0 1.651)"/>
    <path class="google" d="M129.9,72.842a6.687,6.687,0,0,1,4.68,1.8l3.513-3.441a11.905,11.905,0,0,0-8.193-3.13,12.274,12.274,0,0,0-10.943,6.611l4.092,3.107A7.284,7.284,0,0,1,129.9,72.842Zm0,0" transform="translate(0.345)"/>
</g>
</svg>