<svg xmlns="http://www.w3.org/2000/svg" width="24" height="24" viewBox="0 0 24 24">
    <defs>
        <style>.line1{fill:#00b900;}.line2{fill:#fff;}</style>
    </defs>
    <g transform="translate(-360.945 -237.638)">
        <circle class="line1" cx="12" cy="12" r="12" transform="translate(360.945 237.638)"/>
        <g transform="translate(364.963 242.437)">
            <g transform="translate(0 0)">
                <path class="line2" d="M397,268.126c0-3.571-3.581-6.48-7.982-6.48s-7.981,2.906-7.981,6.48c0,3.2,2.839,5.88,6.676,6.391.26.056.613.172.7.394a1.638,1.638,0,0,1,.025.72s-.094.563-.114.683c-.035.2-.161.79.691.431a25.778,25.778,0,0,0,6.271-4.634h0A5.76,5.76,0,0,0,397,268.125" transform="translate(-381.035 -261.646)"/>
                <g transform="translate(2.618 4.748)">
                    <path class="line1" d="M409.974,285.4h-.56a.155.155,0,0,0-.155.155v3.48a.155.155,0,0,0,.155.155h.56a.155.155,0,0,0,.155-.155v-3.48a.155.155,0,0,0-.155-.155" transform="translate(-406.233 -285.4)"/>
                    <path class="line1" d="M419.483,285.4h-.556a.155.155,0,0,0-.156.155v2.066l-1.594-2.153-.012-.016h0l-.01-.01h0l-.008-.007h-.632a.155.155,0,0,0-.155.155v3.48a.155.155,0,0,0,.155.155h.56a.155.155,0,0,0,.156-.155v-2.065l1.6,2.16a.152.152,0,0,0,.04.038h.035a.149.149,0,0,0,.04,0h.56a.155.155,0,0,0,.156-.155v-3.48a.155.155,0,0,0-.156-.155" transform="translate(-411.889 -285.4)"/>
                    <path class="line1" d="M396.52,288.322H395v-2.76a.155.155,0,0,0-.155-.155h-.56a.156.156,0,0,0-.156.155v3.48h0a.155.155,0,0,0,.043.107h0a.155.155,0,0,0,.108.043h2.237a.155.155,0,0,0,.155-.156v-.56a.156.156,0,0,0-.155-.156" transform="translate(-394.127 -285.399)"/>
                    <path class="line1" d="M438,286.276a.155.155,0,0,0,.155-.156v-.559a.156.156,0,0,0-.155-.156h-2.237a.155.155,0,0,0-.108.043h0a.156.156,0,0,0-.043.107h0v3.48h0a.155.155,0,0,0,.043.107h0a.155.155,0,0,0,.108.043H438a.155.155,0,0,0,.155-.156v-.56a.155.155,0,0,0-.155-.155h-1.522v-.588H438a.155.155,0,0,0,.155-.156v-.56a.155.155,0,0,0-.155-.156h-1.522v-.588Z" transform="translate(-427.306 -285.399)"/>
                </g>
            </g>
        </g>
    </g>
</svg>