<svg xmlns="http://www.w3.org/2000/svg" width="14" height="16.589" viewBox="0 0 14 16.589"><defs><style>.a{fill:#aaa;}</style></defs><path class="a" d="M139.74,46.37V39.36H129.26v7.01ZM131.8,35.88v1.76h5.4V35.88a2.7,2.7,0,0,0-5.4,0Zm7.942,1.76a1.765,1.765,0,0,1,1.76,1.719v7.01a1.765,1.765,0,0,1-1.76,1.719H129.26a1.765,1.765,0,0,1-1.76-1.719V39.36a1.765,1.765,0,0,1,1.76-1.719h.86V35.88a4.38,4.38,0,1,1,8.76,0v1.76Zm-5.24,6.985a1.76,1.76,0,1,1,1.76-1.76A1.8,1.8,0,0,1,134.5,44.625Z" transform="translate(-127.5 -31.5)"/></svg>